<svg width="901" height="1058" viewBox="0 0 901 1058" fill="none" xmlns="http://www.w3.org/2000/svg">
<rect width="901" height="1058" fill="#C1C1C1"/>
<path d="M274.841 572H263.023L297.205 478.909H308.841L343.023 572H331.205L303.386 493.636H302.659L274.841 572ZM279.205 535.636H326.841V545.636H279.205V535.636ZM382.432 573.455C376.614 573.455 371.477 571.985 367.023 569.045C362.568 566.076 359.083 561.894 356.568 556.5C354.053 551.076 352.795 544.667 352.795 537.273C352.795 529.939 354.053 523.576 356.568 518.182C359.083 512.788 362.583 508.621 367.068 505.682C371.553 502.742 376.735 501.273 382.614 501.273C387.159 501.273 390.75 502.03 393.386 503.545C396.053 505.03 398.083 506.727 399.477 508.636C400.902 510.515 402.008 512.061 402.795 513.273H403.705V478.909H414.432V572H404.068V561.273H402.795C402.008 562.545 400.886 564.152 399.432 566.091C397.977 568 395.902 569.712 393.205 571.227C390.508 572.712 386.917 573.455 382.432 573.455ZM383.886 563.818C388.189 563.818 391.826 562.697 394.795 560.455C397.765 558.182 400.023 555.045 401.568 551.045C403.114 547.015 403.886 542.364 403.886 537.091C403.886 531.879 403.129 527.318 401.614 523.409C400.098 519.47 397.856 516.409 394.886 514.227C391.917 512.015 388.25 510.909 383.886 510.909C379.341 510.909 375.553 512.076 372.523 514.409C369.523 516.712 367.265 519.848 365.75 523.818C364.265 527.758 363.523 532.182 363.523 537.091C363.523 542.061 364.28 546.576 365.795 550.636C367.341 554.667 369.614 557.879 372.614 560.273C375.644 562.636 379.402 563.818 383.886 563.818ZM435.568 572V502.182H445.932V513.091H446.841C448.295 509.364 450.644 506.47 453.886 504.409C457.129 502.318 461.023 501.273 465.568 501.273C470.174 501.273 474.008 502.318 477.068 504.409C480.159 506.47 482.568 509.364 484.295 513.091H485.023C486.811 509.485 489.492 506.621 493.068 504.5C496.644 502.348 500.932 501.273 505.932 501.273C512.174 501.273 517.28 503.227 521.25 507.136C525.22 511.015 527.205 517.061 527.205 525.273V572H516.477V525.273C516.477 520.121 515.068 516.439 512.25 514.227C509.432 512.015 506.114 510.909 502.295 510.909C497.386 510.909 493.583 512.394 490.886 515.364C488.189 518.303 486.841 522.03 486.841 526.545V572H475.932V524.182C475.932 520.212 474.644 517.015 472.068 514.591C469.492 512.136 466.174 510.909 462.114 510.909C459.326 510.909 456.72 511.652 454.295 513.136C451.902 514.621 449.962 516.682 448.477 519.318C447.023 521.924 446.295 524.939 446.295 528.364V572H435.568ZM546.818 572V502.182H557.545V572H546.818ZM552.273 490.545C550.182 490.545 548.379 489.833 546.864 488.409C545.379 486.985 544.636 485.273 544.636 483.273C544.636 481.273 545.379 479.561 546.864 478.136C548.379 476.712 550.182 476 552.273 476C554.364 476 556.152 476.712 557.636 478.136C559.152 479.561 559.909 481.273 559.909 483.273C559.909 485.273 559.152 486.985 557.636 488.409C556.152 489.833 554.364 490.545 552.273 490.545ZM587.92 530V572H577.193V502.182H587.557V513.091H588.466C590.102 509.545 592.587 506.697 595.92 504.545C599.254 502.364 603.557 501.273 608.83 501.273C613.557 501.273 617.693 502.242 621.239 504.182C624.784 506.091 627.542 509 629.511 512.909C631.481 516.788 632.466 521.697 632.466 527.636V572H621.739V528.364C621.739 522.879 620.314 518.606 617.466 515.545C614.617 512.455 610.708 510.909 605.739 510.909C602.314 510.909 599.254 511.652 596.557 513.136C593.89 514.621 591.784 516.788 590.239 519.636C588.693 522.485 587.92 525.939 587.92 530Z" fill="white"/>
</svg>
